<mxfile host="app.diagrams.net" modified="2023-11-03T10:18:05.436Z" agent="Mozilla/5.0 (Windows NT 10.0; Win64; x64) AppleWebKit/537.36 (KHTML, like Gecko) Chrome/119.0.0.0 Safari/537.36" version="22.0.8" etag="qKv1MTMEQ4SVZLpIjy-F" type="github">
  <diagram name="第 1 页" id="P32QdX5BT8W8-EAzaQgj">
    <mxGraphModel>
      <root>
        <mxCell id="0" />
        <mxCell id="1" parent="0" />
      </root>
    </mxGraphModel>
  </diagram>
</mxfile>
